# xmcd
# Copyright (C) 1995-1998 Ti Kan
#
# Track frame offsets:
#       150
#       66131
#       156187
#
# Disc length: 3097 seconds
#
# Revision: 0
# Processed by: cddbd v1.5.2PL0 Copyright (c) Steve Scherf et al.
# Submitted via: CD-Import v1.0
#
DISCID=1f0c1703
DTITLE=Mixedfilter - 
DYEAR=1900
DGENRE=
TTITLE0=Mf Robnik1
TTITLE1=Mf Robnik2
TTITLE2=Mf Robnik3
EXTD=
EXTT0=
EXTT1=
EXTT2=
PLAYORDER=
